Coordinates
version=1
nRows=32
nColumns=22
inDegrees=yes

Units are S.I. units (second, meters, Newtons, ...)
If the header above contains a line with 'inDegrees', this indicates whether rotational values are in degrees (yes) or radians (no).

endheader
time	pelvis_tilt	pelvis_list	pelvis_rotation	pelvis_tx	pelvis_ty	pelvis_tz	hip_flexion_r	hip_adduction_r	hip_rotation_r	knee_angle_r	ankle_angle_r	subtalar_angle_r	hip_flexion_l	hip_adduction_l	hip_rotation_l	knee_angle_l	ankle_angle_l	subtalar_angle_l	lumbar_extension	lumbar_bending	lumbar_rotation
      4.18000000	     -2.62006176	     -3.52339539	    -92.49267254	      0.03504891	      0.90559397	      0.83807310	     -3.16462515	      5.49602919	      6.88570350	    -26.66654542	     17.47780464	     -5.65561643	     19.08575995	     -9.27489428	     -9.48040743	    -12.84695485	      1.49879932	      8.57842830	     -7.83269962	     -0.47230858	      4.17383209
      4.19000000	     -2.56430962	     -3.52973849	    -92.80703789	      0.03774815	      0.90528000	      0.84457676	     -3.36671057	      5.23560328	      7.11371730	    -27.14644291	     17.47697997	     -5.56325393	     19.16914552	     -9.10090825	     -9.29694512	    -13.85222802	      0.94260856	      7.94602393	     -7.82792682	     -0.59141902	      4.23994137
      4.20000000	     -2.48988888	     -3.53210575	    -93.13856398	      0.04048376	      0.90515656	      0.85106762	     -3.50011103	      4.94761141	      7.31786448	    -27.72601755	     17.37213056	     -5.41043667	     19.21810363	     -8.90585847	     -9.16142937	    -14.80074898	      0.37246220	      7.31628091	     -7.81540871	     -0.72962768	      4.31475039
      4.21000000	     -2.40171047	     -3.53483883	    -93.48051209	      0.04323710	      0.90525112	      0.85755253	     -3.56372040	      4.64100173	      7.49956431	    -28.40983057	     17.13562647	     -5.19581127	     19.22931498	     -8.70010326	     -9.09730848	    -15.68922976	     -0.19159079	      6.75980733	     -7.79921358	     -0.88341174	      4.38754933
      4.22000000	     -2.30459209	     -3.53739026	    -93.81997799	      0.04605338	      0.90555745	      0.86402061	     -3.54417057	      4.31482308	      7.62871486	    -29.21531446	     16.76798364	     -4.85354791	     19.22106631	     -8.48818348	     -9.12443117	    -16.54335816	     -0.67979735	      6.18676524	     -7.78058465	     -1.04004217	      4.46214242
      4.23000000	     -2.18801156	     -3.53213203	    -94.18408542	      0.04882205	      0.90609448	      0.87046665	     -3.41445067	      3.97530917	      7.78319920	    -30.17399973	     16.20216042	     -4.48975588	     19.14971765	     -8.26717649	     -9.23221834	    -17.27418482	     -1.12809420	      5.77191620	     -7.74776165	     -1.22386544	      4.50964179
      4.24000000	     -2.06900344	     -3.52118001	    -94.53966364	      0.05163086	      0.90682519	      0.87689306	     -3.17485890	      3.62422729	      7.87582045	    -31.27966887	     15.45780608	     -3.96367832	     19.06085613	     -8.05109576	     -9.43589517	    -17.96648171	     -1.45436419	      5.34522858	     -7.70392996	     -1.40335990	      4.55255062
      4.25000000	     -1.95541293	     -3.50925278	    -94.87084980	      0.05443696	      0.90773589	      0.88330325	     -2.83295068	      3.28078646	      7.92032464	    -32.52693453	     14.51567161	     -3.29846799	     18.94439081	     -7.84476926	     -9.70553425	    -18.60951232	     -1.62905109	      4.95652669	     -7.65293029	     -1.58034592	      4.53111611
      4.26000000	     -1.84270196	     -3.48666405	    -95.21158189	      0.05721930	      0.90881071	      0.88966617	     -2.35811376	      2.93917556	      7.95598749	    -33.94166384	     13.36525434	     -2.60855098	     18.76402238	     -7.64041138	    -10.02795570	    -19.11912724	     -1.72398579	      4.65647859	     -7.58672389	     -1.75121639	      4.49769404
      4.27000000	     -1.73479856	     -3.45858292	    -95.53266572	      0.06000169	      0.91000879	      0.89596838	     -1.76681278	      2.60530610	      7.97089309	    -35.49774430	     12.00901527	     -1.84034431	     18.54587230	     -7.43467336	    -10.37580967	    -19.54586523	     -1.70583943	      4.39037312	     -7.51264051	     -1.91300864	      4.41843084
      4.28000000	     -1.63988886	     -3.42615916	    -95.85439074	      0.06274390	      0.91130026	      0.90219515	     -1.05131858	      2.28310559	      7.95864378	    -37.20358643	     10.47263341	     -1.07540818	     18.26370951	     -7.23652185	    -10.75603698	    -19.84415271	     -1.63421395	      4.16944140	     -7.43286370	     -2.05837900	      4.32859842
      4.29000000	     -1.55371471	     -3.39469191	    -96.14140649	      0.06549426	      0.91263348	      0.90832916	     -0.23657323	      1.97480043	      7.93426765	    -39.02321931	      8.77294685	     -0.24701592	     17.94834367	     -7.03129183	    -11.13494091	    -20.06947282	     -1.44285142	      3.95413001	     -7.35787724	     -2.18694157	      4.14410238
      4.30000000	     -1.47832908	     -3.37199281	    -96.42800154	      0.06820149	      0.91399578	      0.91435401	      0.67489808	      1.67366619	      7.89291670	    -40.95504743	      6.96004627	      0.50339805	     17.56551693	     -6.82634924	    -11.54221295	    -20.17521639	     -1.23829072	      3.76999633	     -7.29663203	     -2.30097242	      3.94961385
      4.31000000	     -1.41814810	     -3.36690787	    -96.70298631	      0.07086636	      0.91535727	      0.92024553	      1.65943404	      1.38490891	      7.83385917	    -42.97060433	      5.07814866	      1.18428854	     17.12194297	     -6.62187362	    -11.95285438	    -20.18345167	     -1.02233626	      3.59521541	     -7.26395368	     -2.39772973	      3.73688254
      4.32000000	     -1.36653298	     -3.38287534	    -96.95674079	      0.07348543	      0.91668561	      0.92600985	      2.69015423	      1.11232362	      7.79206626	    -45.03011808	      3.18776669	      1.82758459	     16.62677398	     -6.40968785	    -12.36052409	    -20.11545843	     -0.75409550	      3.40903398	     -7.26189736	     -2.48311969	      3.44301687
      4.33000000	     -1.32416120	     -3.43754817	    -97.20193699	      0.07604363	      0.91798643	      0.93162826	      3.74513958	      0.83981767	      7.72701703	    -47.11774561	      1.36395634	      2.34572622	     16.06782651	     -6.19576999	    -12.79547904	    -19.98189617	     -0.52614667	      3.23350184	     -7.31405498	     -2.56309341	      3.15599638
      4.34000000	     -1.30845292	     -3.54380640	    -97.42707825	      0.07850623	      0.91929143	      0.93710559	      4.77061772	      0.60701563	      7.68418678	    -49.16994194	     -0.38047929	      2.67262965	     15.42095155	     -5.98564069	    -13.17325521	    -19.75692100	     -0.32004432	      3.09295198	     -7.43757426	     -2.62469444	      2.82700346
      4.35000000	     -1.27871354	     -3.66005887	    -97.63170955	      0.08092773	      0.92045799	      0.94244034	      5.82330061	      0.34826592	      7.61321643	    -51.20187471	     -1.86920668	      3.19892538	     14.79142102	     -5.76297917	    -13.61401971	    -19.55995582	     -0.04746007	      2.83154839	     -7.57744017	     -2.69872580	      2.46630240
      4.36000000	     -1.27523173	     -3.83877058	    -97.81457672	      0.08324961	      0.92165144	      0.94763764	      6.79649049	      0.12152573	      7.54407237	    -53.12472465	     -3.16398487	      3.47768074	     14.08571131	     -5.55171816	    -14.02234696	    -19.31655950	      0.13037182	      2.65143590	     -7.80150857	     -2.75823494	      2.08552133
      4.37000000	     -1.30277301	     -4.04355950	    -97.97528249	      0.08549352	      0.92280366	      0.95267064	      7.72121914	     -0.06611329	      7.47004874	    -54.92241754	     -4.21402342	      3.67314112	     13.36022591	     -5.35768679	    -14.33603680	    -19.06149960	      0.32035744	      2.49472990	     -8.07073910	     -2.78737109	      1.71342125
      4.38000000	     -1.32010354	     -4.25998269	    -98.11243904	      0.08766509	      0.92388072	      0.95754321	      8.60650862	     -0.26014351	      7.39095395	    -56.58033968	     -4.94306132	      3.88502361	     12.65232610	     -5.15387088	    -14.65687470	    -18.82815898	      0.50843668	      2.30010563	     -8.36183480	     -2.83384806	      1.32662660
      4.39000000	     -1.34100991	     -4.46929443	    -98.23571795	      0.08978075	      0.92488065	      0.96223368	      9.45755284	     -0.44375220	      7.31163601	    -58.06637115	     -5.36341167	      4.06635672	     11.98374484	     -4.95419050	    -14.93534687	    -18.62372040	      0.68636431	      2.09310784	     -8.65691796	     -2.87167446	      0.94154799
      4.40000000	     -1.35567812	     -4.64534883	    -98.34503969	      0.09184087	      0.92577195	      0.96672508	     10.29731730	     -0.62359184	      7.22786848	    -59.36502010	     -5.49057064	      4.20620228	     11.38697065	     -4.75440464	    -15.18004886	    -18.45055132	      0.85876830	      1.87646273	     -8.92419653	     -2.90946461	      0.57106307
      4.41000000	     -1.36911520	     -4.76672124	    -98.44323091	      0.09385456	      0.92653653	      0.97098960	     11.14374161	     -0.78833775	      7.14602105	    -60.46496463	     -5.36322217	      4.28641469	     10.89300919	     -4.56495282	    -15.37553012	    -18.32371530	      1.02873941	      1.67241341	     -9.14497570	     -2.93695049	      0.22540440
      4.42000000	     -1.37941290	     -4.81894747	    -98.53616142	      0.09582968	      0.92717606	      0.97504805	     12.00705991	     -0.94267194	      7.05961124	    -61.35275092	     -5.03853702	      4.31362079	     10.51263841	     -4.38539214	    -15.53249465	    -18.23710155	      1.18734481	      1.46639595	     -9.29578653	     -2.95108241	     -0.09170752
      4.43000000	     -1.39555619	     -4.80821531	    -98.62162248	      0.09775554	      0.92771481	      0.97889947	     12.87540947	     -1.07786847	      6.96680159	    -62.01984518	     -4.57135231	      4.29376803	     10.23700885	     -4.22700961	    -15.64298489	    -18.19017027	      1.34699221	      1.27699059	     -9.38627263	     -2.94444482	     -0.37693856
      4.44000000	     -1.42557882	     -4.73528652	    -98.69495285	      0.09964124	      0.92818427	      0.98260796	     13.73707024	     -1.19566103	      6.84208785	    -62.45380626	     -4.02003317	      4.23522086	     10.05418313	     -4.09760408	    -15.72843018	    -18.17274896	      1.51297000	      1.08980227	     -9.40736680	     -2.90590875	     -0.63536480
      4.45000000	     -1.48060536	     -4.62630995	    -98.75697993	      0.10147888	      0.92862945	      0.98615341	     14.55690954	     -1.27869092	      6.70631357	    -62.64859047	     -3.41656258	      4.15678002	      9.93364761	     -4.00498847	    -15.78023593	    -18.18141357	      1.69744062	      0.92284525	     -9.39848044	     -2.82826724	     -0.87388708
      4.46000000	     -1.56693278	     -4.49311230	    -98.81612896	      0.10323180	      0.92908807	      0.98960489	     15.31269693	     -1.32369646	      6.55421502	    -62.59763439	     -2.79015618	      4.07828483	      9.83889619	     -3.95329453	    -15.80623447	    -18.18584477	      1.88272949	      0.77689832	     -9.35810102	     -2.71168059	     -1.08823992
      4.47000000	     -1.68227087	     -4.35017099	    -98.87074420	      0.10491078	      0.92957829	      0.99297041	     15.98689728	     -1.33753937	      6.38502050	    -62.30228762	     -2.16436943	      4.01746003	      9.74840403	     -3.93675895	    -15.82011536	    -18.17396540	      2.06178868	      0.65322054	     -9.30461912	     -2.55892055	     -1.27318705
      4.48000000	     -1.82039895	     -4.23746749	    -98.94619083	      0.10646022	      0.93017020	      0.99629121	     16.52931555	     -1.31929365	      6.24008744	    -61.75727347	     -1.55423525	      4.01049795	      9.59106243	     -3.94092427	    -15.82776386	    -18.10299301	      2.20814289	      0.58562325	     -9.27635587	     -2.39383840	     -1.40273870
      4.49000000	     -1.97610178	     -4.07247429	    -98.98939167	      0.10796285	      0.93065842	      0.99951361	     17.05475989	     -1.28643476	      6.03676231	    -61.01671869	     -0.98400604	      3.98056591	      9.51842722	     -3.98273464	    -15.83805326	    -18.07685845	      2.39572993	      0.46186333	     -9.18767848	     -2.19593648	     -1.56289531
